<svg xmlns="http://www.w3.org/2000/svg" width="1400" height="560" viewBox="0 0 1400 560"><rect width="1400" height="560" fill="#f7fafc"/><style>.t{font:700 28px Arial,'Noto Sans KR',sans-serif;fill:#0b1f33}.s{font:500 20px Arial,'Noto Sans KR',sans-serif;fill:#526577}.b{fill:#fff;stroke:#cfdbe5;stroke-width:2}.a{stroke:#159b83;stroke-width:5;fill:none;marker-end:url(#m)}</style><defs><marker id="m" markerWidth="10" markerHeight="10" refX="8" refY="3" orient="auto"><path d="M0,0 L0,6 L9,3 z" fill="#159b83"/></marker></defs><text x="70" y="72" class="t">Whole Building Energy Simulation</text><text x="70" y="108" class="s">건물의 물리·운전조건을 하나의 모델로 연결하여 Load → Energy → Cost를 계산</text><rect x="70" y="180" rx="20" width="180" height="125" class="b"/><text x="160" y="230" text-anchor="middle" class="t" style="font-size:22px">Weather</text><text x="160" y="270" text-anchor="middle" class="s">기상·일사</text><path d="M250 242 L290 242" class="a"/><rect x="300" y="180" rx="20" width="180" height="125" class="b"/><text x="390" y="230" text-anchor="middle" class="t" style="font-size:22px">Envelope</text><text x="390" y="270" text-anchor="middle" class="s">외피·창호</text><path d="M480 242 L520 242" class="a"/><rect x="530" y="180" rx="20" width="180" height="125" class="b"/><text x="620" y="230" text-anchor="middle" class="t" style="font-size:22px">Internal Load</text><text x="620" y="270" text-anchor="middle" class="s">조명·기기·재실</text><path d="M710 242 L750 242" class="a"/><rect x="760" y="180" rx="20" width="180" height="125" class="b"/><text x="850" y="230" text-anchor="middle" class="t" style="font-size:22px">HVAC</text><text x="850" y="270" text-anchor="middle" class="s">공조·외기·Setpoint</text><path d="M940 242 L980 242" class="a"/><rect x="990" y="180" rx="20" width="180" height="125" class="b"/><text x="1080" y="230" text-anchor="middle" class="t" style="font-size:22px">Plant</text><text x="1080" y="270" text-anchor="middle" class="s">냉동기·보일러·펌프</text><path d="M1170 242 L1210 242" class="a"/><rect x="1220" y="180" rx="20" width="180" height="125" class="b"/><text x="1310" y="230" text-anchor="middle" class="t" style="font-size:22px">Utility</text><text x="1310" y="270" text-anchor="middle" class="s">요금·비용</text><rect x="360" y="390" rx="24" width="680" height="110" fill="#0b1f33"/><text x="700" y="435" text-anchor="middle" style="font:700 26px Arial,'Noto Sans KR',sans-serif;fill:white">DOE-2.1E · Baseline + Parametric Simulation</text><text x="700" y="474" text-anchor="middle" style="font:500 20px Arial,'Noto Sans KR',sans-serif;fill:#cbd8e5">조건 변경 → 재시뮬레이션 → 연간 에너지·Peak·비용 영향 비교</text></svg>